<?xml version="1.0" standalone="no"?>
<!DOCTYPE svg PUBLIC "-//W3C//DTD SVG 20010904//EN"
 "http://www.w3.org/TR/2001/REC-SVG-20010904/DTD/svg10.dtd">
<svg version="1.0" xmlns="http://www.w3.org/2000/svg"
 width="512.000000pt" height="512.000000pt" viewBox="0 0 512.000000 512.000000"
 preserveAspectRatio="xMidYMid meet">

<g transform="translate(0.000000,512.000000) scale(0.100000,-0.100000)"
fill="#000000" stroke="none">
<path d="M1398 4819 c-63 -10 -160 -63 -204 -112 -111 -123 -123 -307 -30
-446 l35 -51 -373 -646 -373 -646 -94 -2 c-114 -2 -164 -21 -243 -96 -79 -74
-111 -150 -111 -260 0 -110 32 -186 111 -260 77 -73 129 -93 243 -96 l94 -2
373 -646 373 -645 -34 -52 c-109 -161 -75 -374 78 -489 66 -51 132 -72 220
-72 141 1 256 72 318 198 l32 64 746 0 746 0 34 -65 c67 -130 178 -197 325
-197 71 0 87 4 152 36 201 100 264 340 140 525 l-35 52 373 645 373 646 94 2
c114 3 166 23 243 96 79 74 111 150 111 260 0 110 -32 186 -111 260 -79 75
-129 94 -243 96 l-94 2 -373 646 -373 645 35 52 c120 179 63 417 -124 517
-187 100 -405 29 -499 -163 l-27 -55 -168 0 c-159 0 -168 -1 -193 -23 -17 -14
-28 -36 -32 -63 -5 -36 -1 -46 25 -75 l30 -34 171 -3 171 -3 19 -45 c30 -67
111 -147 184 -180 52 -24 76 -28 150 -29 l88 -1 373 -646 372 -645 -19 -24
c-10 -13 -31 -46 -46 -74 -23 -45 -26 -61 -26 -155 0 -111 10 -145 69 -225
l22 -30 -373 -645 -372 -644 -88 -1 c-74 -1 -98 -5 -150 -29 -73 -33 -154
-113 -184 -181 l-20 -45 -749 0 -749 0 -20 45 c-30 68 -111 148 -184 181 -52
24 -76 28 -150 29 l-88 1 -373 646 -372 645 19 24 c10 13 31 46 46 74 23 45
26 61 26 155 0 94 -3 110 -26 155 -15 28 -36 61 -46 74 l-19 24 372 645 373
646 88 1 c74 1 98 5 150 29 73 33 154 113 184 180 l19 45 171 3 171 3 30 34
c26 29 30 39 25 75 -4 27 -15 49 -32 63 -25 22 -34 23 -193 23 l-167 0 -34 65
c-74 144 -223 220 -383 194z m144 -215 c40 -21 71 -70 76 -125 6 -60 -10 -100
-54 -138 -96 -84 -249 -21 -262 109 -12 129 119 214 240 154z m2206 -6 c108
-65 88 -237 -33 -283 -106 -41 -215 33 -215 144 0 133 133 208 248 139z
m-3303 -1903 c103 -60 101 -211 -2 -272 -75 -44 -162 -24 -217 51 -29 39 -29
133 0 173 56 75 141 94 219 48z m4395 3 c57 -39 75 -72 75 -138 0 -44 -5 -66
-21 -86 -69 -93 -200 -98 -265 -10 -32 42 -34 147 -4 188 50 67 152 89 215 46z
m-3291 -1905 c52 -39 73 -83 69 -144 -7 -95 -65 -151 -159 -151 -170 0 -219
231 -65 303 50 24 116 20 155 -8z m2177 8 c154 -70 104 -303 -65 -303 -91 0
-151 55 -159 147 -10 127 107 209 224 156z"/>
<path d="M2495 4537 c-17 -14 -28 -36 -32 -63 -5 -36 -1 -46 25 -75 25 -28 37
-34 72 -34 35 0 47 6 72 34 26 29 30 39 25 75 -7 54 -44 86 -97 86 -26 0 -48
-8 -65 -23z"/>
<path d="M1598 3805 c-14 -14 -28 -39 -32 -56 -8 -41 -8 -2337 0 -2378 4 -17
18 -42 32 -56 l25 -25 937 0 937 0 25 25 c14 14 28 39 32 56 3 18 6 477 6
1021 0 822 -2 994 -14 1021 -8 18 -101 119 -208 225 l-194 192 -761 0 -760 0
-25 -25z m1252 -375 c0 -309 -9 -300 300 -300 l210 0 0 -820 0 -820 -800 0
-800 0 0 1070 0 1070 545 0 545 0 0 -200z m357 58 c79 -79 143 -146 143 -151
0 -4 -66 -6 -147 -5 l-148 3 -3 148 c-1 81 1 147 5 147 4 0 72 -64 150 -142z"/>
<path d="M2025 3338 c-62 -34 -74 -110 -26 -159 l29 -29 280 0 280 0 30 25
c38 32 46 65 28 109 -26 63 -43 66 -338 66 -172 -1 -270 -4 -283 -12z"/>
<path d="M2025 2938 c-62 -34 -74 -110 -26 -159 l29 -29 280 0 280 0 30 25
c38 32 46 65 28 109 -26 63 -43 66 -338 66 -172 -1 -270 -4 -283 -12z"/>
<path d="M2026 2535 c-56 -30 -55 -22 -56 -402 l0 -353 29 -32 29 -33 532 0
532 0 29 33 29 32 0 351 c0 386 0 387 -62 408 -21 7 -200 11 -532 11 -428 0
-505 -2 -530 -15z m924 -405 l0 -220 -390 0 -390 0 0 220 0 220 390 0 390 0 0
-220z"/>
</g>
</svg>
